<svg width="24" height="25" viewBox="0 0 24 25" fill="none" xmlns="http://www.w3.org/2000/svg">
<path d="M16.7502 4.06V2.5C16.7502 2.09 16.4102 1.75 16.0002 1.75C15.5902 1.75 15.2502 2.09 15.2502 2.5V4H8.75023V2.5C8.75023 2.09 8.41023 1.75 8.00023 1.75C7.59023 1.75 7.25023 2.09 7.25023 2.5V4.06C4.55023 4.31 3.24023 5.92 3.04023 8.31C3.02023 8.6 3.26023 8.84 3.54023 8.84H20.4602C20.7502 8.84 20.9902 8.59 20.9602 8.31C20.7602 5.92 19.4502 4.31 16.7502 4.06Z" fill="#43A95D"/>
<path d="M19 15.5C16.79 15.5 15 17.29 15 19.5C15 20.25 15.21 20.96 15.58 21.56C16.27 22.72 17.54 23.5 19 23.5C20.46 23.5 21.73 22.72 22.42 21.56C22.79 20.96 23 20.25 23 19.5C23 17.29 21.21 15.5 19 15.5ZM21.07 19.07L18.94 21.04C18.8 21.17 18.61 21.24 18.43 21.24C18.24 21.24 18.05 21.17 17.9 21.02L16.91 20.03C16.62 19.74 16.62 19.26 16.91 18.97C17.2 18.68 17.68 18.68 17.97 18.97L18.45 19.45L20.05 17.97C20.35 17.69 20.83 17.71 21.11 18.01C21.39 18.31 21.37 18.78 21.07 19.07Z" fill="#43A95D"/>
<path d="M20 10.3401H4C3.45 10.3401 3 10.7901 3 11.3401V17.5001C3 20.5001 4.5 22.5001 8 22.5001H12.93C13.62 22.5001 14.1 21.8301 13.88 21.1801C13.68 20.6001 13.51 19.9601 13.51 19.5001C13.51 16.4701 15.98 14.0001 19.01 14.0001C19.3 14.0001 19.59 14.0201 19.87 14.0701C20.47 14.1601 21.01 13.6901 21.01 13.0901V11.3501C21 10.7901 20.55 10.3401 20 10.3401ZM9.21 18.7101C9.02 18.8901 8.76 19.0001 8.5 19.0001C8.24 19.0001 7.98 18.8901 7.79 18.7101C7.61 18.5201 7.5 18.2601 7.5 18.0001C7.5 17.7401 7.61 17.4801 7.79 17.2901C7.89 17.2001 7.99 17.1301 8.12 17.0801C8.49 16.9201 8.93 17.0101 9.21 17.2901C9.39 17.4801 9.5 17.7401 9.5 18.0001C9.5 18.2601 9.39 18.5201 9.21 18.7101ZM9.21 15.2101C9.16 15.2501 9.11 15.2901 9.06 15.3301C9 15.3701 8.94 15.4001 8.88 15.4201C8.82 15.4501 8.76 15.4701 8.7 15.4801C8.63 15.4901 8.56 15.5001 8.5 15.5001C8.24 15.5001 7.98 15.3901 7.79 15.2101C7.61 15.0201 7.5 14.7601 7.5 14.5001C7.5 14.2401 7.61 13.9801 7.79 13.7901C8.02 13.5601 8.37 13.4501 8.7 13.5201C8.76 13.5301 8.82 13.5501 8.88 13.5801C8.94 13.6001 9 13.6301 9.06 13.6701C9.11 13.7101 9.16 13.7501 9.21 13.7901C9.39 13.9801 9.5 14.2401 9.5 14.5001C9.5 14.7601 9.39 15.0201 9.21 15.2101ZM12.71 15.2101C12.52 15.3901 12.26 15.5001 12 15.5001C11.74 15.5001 11.48 15.3901 11.29 15.2101C11.11 15.0201 11 14.7601 11 14.5001C11 14.2401 11.11 13.9801 11.29 13.7901C11.67 13.4201 12.34 13.4201 12.71 13.7901C12.89 13.9801 13 14.2401 13 14.5001C13 14.7601 12.89 15.0201 12.71 15.2101Z" fill="#43A95D"/>
</svg>
