<svg width="32" height="32" viewBox="0 0 32 32" fill="none" xmlns="http://www.w3.org/2000/svg">
<path d="M20.7865 16.5333V21.96C20.7865 22.44 20.7332 22.8933 20.6132 23.3067C20.1198 25.2667 18.4932 26.4933 16.2532 26.4933H12.6265L8.59984 29.1733C7.99984 29.5867 7.19984 29.1467 7.19984 28.4267V26.4933C5.83984 26.4933 4.7065 26.04 3.91984 25.2533C3.11984 24.4533 2.6665 23.32 2.6665 21.96V16.5333C2.6665 14 4.23984 12.2533 6.6665 12.0267C6.83984 12.0133 7.01317 12 7.19984 12H16.2532C18.9732 12 20.7865 13.8133 20.7865 16.5333Z" fill="white"/>
<path d="M23.6665 20.8C25.3598 20.8 26.7865 20.24 27.7732 19.24C28.7732 18.2534 29.3332 16.8267 29.3332 15.1334V8.33335C29.3332 5.20002 26.7998 2.66669 23.6665 2.66669H12.3332C9.19984 2.66669 6.6665 5.20002 6.6665 8.33335V9.33335C6.6665 9.70669 6.95984 10 7.33317 10H16.2532C19.8665 10 22.7865 12.92 22.7865 16.5334V20.1334C22.7865 20.5067 23.0798 20.8 23.4532 20.8H23.6665V20.8Z" fill="white"/>
</svg>
