<svg width="32" height="32" viewBox="0 0 32 32" fill="none" xmlns="http://www.w3.org/2000/svg">
<path d="M11.9065 2.66666H6.69317C3.99984 2.66666 2.6665 3.99999 2.6665 6.69332V11.92C2.6665 14.6667 3.99984 16 6.69317 15.9333H11.9198C14.6665 16 15.9998 14.6667 15.9332 11.9067V6.69332C15.9998 3.99999 14.6665 2.66666 11.9065 2.66666ZM12.0132 13.0133C11.1065 13.0133 10.2265 12.6667 9.49317 12.0533C8.6665 12.6533 7.6665 13.0133 6.5865 13.0133C6.03984 13.0133 5.5865 12.56 5.5865 12.0133C5.5865 11.4667 6.03984 11.0133 6.5865 11.0133C7.9465 11.0133 9.07984 10.08 9.49317 8.79999H6.5865C6.03984 8.79999 5.5865 8.34666 5.5865 7.79999C5.5865 7.25332 6.03984 6.79999 6.5865 6.79999H8.3065C8.35984 6.29332 8.77317 5.89332 9.29317 5.89332C9.81317 5.89332 10.2265 6.29332 10.2798 6.79999H10.6265C10.6398 6.79999 10.6532 6.79999 10.6532 6.79999H10.6798H11.9998C12.5465 6.79999 12.9998 7.25332 12.9998 7.79999C12.9998 8.34666 12.5598 8.79999 11.9998 8.79999H11.5598C11.4398 9.43999 11.1865 10.04 10.8532 10.5867C11.2132 10.8533 11.5998 11.0133 12.0132 11.0133C12.5598 11.0133 13.0132 11.4667 13.0132 12.0133C13.0132 12.56 12.5598 13.0133 12.0132 13.0133Z" fill="#2D713E"/>
<path d="M11.9998 30.3333C6.3065 30.3333 1.6665 25.6933 1.6665 20C1.6665 19.4533 2.11984 19 2.6665 19C3.21317 19 3.6665 19.4533 3.6665 20C3.6665 23.9467 6.41317 27.2533 10.1065 28.12L9.7465 27.52C9.4665 27.04 9.61317 26.4267 10.0932 26.1467C10.5598 25.8667 11.1865 26.0133 11.4665 26.4933L12.8665 28.8267C13.0532 29.1333 13.0532 29.52 12.8798 29.8267C12.6932 30.1333 12.3598 30.3333 11.9998 30.3333Z" fill="#2D713E"/>
<path d="M29.3334 13C28.7867 13 28.3334 12.5467 28.3334 12C28.3334 8.05332 25.5867 4.74666 21.8934 3.87999L22.2534 4.47999C22.5334 4.95999 22.3867 5.57332 21.9067 5.85332C21.4401 6.13332 20.8134 5.98666 20.5334 5.50666L19.1334 3.17332C18.9467 2.86666 18.9467 2.47999 19.1201 2.17332C19.3067 1.86666 19.6401 1.66666 20.0001 1.66666C25.6934 1.66666 30.3334 6.30666 30.3334 12C30.3334 12.5467 29.8801 13 29.3334 13Z" fill="#2D713E"/>
<path d="M22.56 15.8C18.8266 15.8 15.7866 18.8267 15.7866 22.5733C15.7866 26.3067 18.8133 29.3467 22.56 29.3467C26.2933 29.3467 29.3333 26.32 29.3333 22.5733C29.3333 18.8267 26.3066 15.8 22.56 15.8ZM25.8666 25.7867C25.3733 26.0267 24.7733 25.84 24.52 25.3333L24.2933 24.88H20.84L20.6133 25.3333C20.44 25.68 20.08 25.88 19.72 25.88C19.5733 25.88 19.4133 25.84 19.28 25.7733C18.7866 25.52 18.5866 24.92 18.8266 24.4267L21.68 18.7333C21.8533 18.4 22.2 18.1867 22.5733 18.1867C22.9466 18.1867 23.2933 18.4 23.4666 18.7467L26.32 24.44C26.56 24.9333 26.36 25.5333 25.8666 25.7867Z" fill="#2D713E"/>
<path d="M21.8398 22.88H23.2932L22.5598 21.4267L21.8398 22.88Z" fill="#2D713E"/>
</svg>
