<svg width="32" height="32" viewBox="0 0 32 32" fill="none" xmlns="http://www.w3.org/2000/svg">
<path d="M28.0932 6.97334C25.9466 6.76001 23.7999 6.60001 21.6399 6.48001V6.46667L21.3465 4.73334C21.1465 3.50667 20.8532 1.66667 17.7332 1.66667H14.2399C11.1332 1.66667 10.8399 3.42667 10.6266 4.72001L10.3466 6.42667C9.10655 6.50667 7.86655 6.58667 6.62655 6.70667L3.90655 6.97334C3.34655 7.02667 2.94655 7.52001 2.99988 8.06667C3.05322 8.61334 3.53322 9.01334 4.09322 8.96L6.81322 8.69334C13.7999 8.00001 20.8399 8.26667 27.9066 8.97334C27.9466 8.97334 27.9732 8.97334 28.0132 8.97334C28.5199 8.97334 28.9599 8.58667 29.0132 8.06667C29.0532 7.52001 28.6532 7.02667 28.0932 6.97334Z" fill="white"/>
<path d="M25.6398 10.8533C25.3198 10.52 24.8798 10.3333 24.4265 10.3333H7.57316C7.11983 10.3333 6.6665 10.52 6.35983 10.8533C6.05316 11.1867 5.87983 11.64 5.9065 12.1067L6.73316 25.7867C6.87983 27.8133 7.0665 30.3467 11.7198 30.3467H20.2798C24.9332 30.3467 25.1198 27.8267 25.2665 25.7867L26.0932 12.12C26.1198 11.64 25.9465 11.1867 25.6398 10.8533ZM18.2132 23.6667H13.7732C13.2265 23.6667 12.7732 23.2133 12.7732 22.6667C12.7732 22.12 13.2265 21.6667 13.7732 21.6667H18.2132C18.7598 21.6667 19.2132 22.12 19.2132 22.6667C19.2132 23.2133 18.7598 23.6667 18.2132 23.6667ZM19.3332 18.3333H12.6665C12.1198 18.3333 11.6665 17.88 11.6665 17.3333C11.6665 16.7867 12.1198 16.3333 12.6665 16.3333H19.3332C19.8798 16.3333 20.3332 16.7867 20.3332 17.3333C20.3332 17.88 19.8798 18.3333 19.3332 18.3333Z" fill="white"/>
</svg>
